<svg width="400" height="300" viewBox="0 0 400 300" xmlns="http://www.w3.org/2000/svg">
  <defs>
    <linearGradient id="crystalGradient1" x1="0%" y1="0%" x2="100%" y2="100%">
      <stop offset="0%" style="stop-color:#FF69B4;stop-opacity:1" />
      <stop offset="100%" style="stop-color:#FF1493;stop-opacity:1" />
    </linearGradient>
    <linearGradient id="crystalGradient2" x1="0%" y1="0%" x2="100%" y2="100%">
      <stop offset="0%" style="stop-color:#00CED1;stop-opacity:1" />
      <stop offset="100%" style="stop-color:#008B8B;stop-opacity:1" />
    </linearGradient>
    <linearGradient id="crystalGradient3" x1="0%" y1="0%" x2="100%" y2="100%">
      <stop offset="0%" style="stop-color:#32CD32;stop-opacity:1" />
      <stop offset="100%" style="stop-color:#228B22;stop-opacity:1" />
    </linearGradient>
    <filter id="crystalGlow">
      <feGaussianBlur stdDeviation="2" result="coloredBlur"/>
      <feMerge> 
        <feMergeNode in="coloredBlur"/>
        <feMergeNode in="SourceGraphic"/>
      </feMerge>
    </filter>
  </defs>
  
  <!-- Background -->
  <rect width="400" height="300" fill="#0a0a23"/>
  
  <!-- Crystal 1 (Rose Quartz) -->
  <polygon points="100,200 120,100 140,200 120,180" fill="url(#crystalGradient1)" filter="url(#crystalGlow)"/>
  <polygon points="100,200 120,100 140,200 120,180" fill="none" stroke="#FFD700" stroke-width="1" opacity="0.5"/>
  
  <!-- Crystal 2 (Aquamarine) -->
  <polygon points="200,220 220,80 240,220 220,200" fill="url(#crystalGradient2)" filter="url(#crystalGlow)"/>
  <polygon points="200,220 220,80 240,220 220,200" fill="none" stroke="#FFD700" stroke-width="1" opacity="0.5"/>
  
  <!-- Crystal 3 (Emerald) -->
  <polygon points="300,210 320,90 340,210 320,190" fill="url(#crystalGradient3)" filter="url(#crystalGlow)"/>
  <polygon points="300,210 320,90 340,210 320,190" fill="none" stroke="#FFD700" stroke-width="1" opacity="0.5"/>
  
  <!-- Small crystals -->
  <polygon points="80,250 85,230 90,250 85,245" fill="#FFD700" opacity="0.7"/>
  <polygon points="350,240 355,220 360,240 355,235" fill="#FFD700" opacity="0.7"/>
  <polygon points="150,260 155,240 160,260 155,255" fill="#FFD700" opacity="0.7"/>
  
  <!-- Sparkles -->
  <circle cx="120" cy="120" r="2" fill="#FFD700" opacity="0.9"/>
  <circle cx="220" cy="100" r="1.5" fill="#FFD700" opacity="0.8"/>
  <circle cx="320" cy="110" r="2" fill="#FFD700" opacity="0.9"/>
  <circle cx="180" cy="150" r="1" fill="#FFD700" opacity="0.7"/>
  <circle cx="280" cy="160" r="1.5" fill="#FFD700" opacity="0.8"/>
  
  <!-- Mystical energy lines -->
  <path d="M 120 180 Q 200 100 280 190" stroke="#FFD700" stroke-width="1" fill="none" opacity="0.3"/>
  <path d="M 100 200 Q 200 120 300 210" stroke="#FFD700" stroke-width="1" fill="none" opacity="0.2"/>
</svg> 