<svg width="400" height="300" viewBox="0 0 400 300" xmlns="http://www.w3.org/2000/svg">
  <defs>
    <radialGradient id="newMoonGradient" cx="50%" cy="50%" r="50%">
      <stop offset="0%" style="stop-color:#2F2F2F;stop-opacity:1" />
      <stop offset="100%" style="stop-color:#000000;stop-opacity:1" />
    </radialGradient>
    <filter id="newMoonGlow">
      <feGaussianBlur stdDeviation="5" result="coloredBlur"/>
      <feMerge> 
        <feMergeNode in="coloredBlur"/>
        <feMergeNode in="SourceGraphic"/>
      </feMerge>
    </filter>
  </defs>
  
  <!-- Background -->
  <rect width="400" height="300" fill="#0a0a23"/>
  
  <!-- Stars (more visible during new moon) -->
  <circle cx="50" cy="50" r="1.5" fill="#FFD700" opacity="0.9"/>
  <circle cx="350" cy="80" r="2" fill="#FFD700" opacity="1"/>
  <circle cx="80" cy="200" r="1.2" fill="#FFD700" opacity="0.8"/>
  <circle cx="320" cy="250" r="1.8" fill="#FFD700" opacity="0.9"/>
  <circle cx="150" cy="100" r="1.5" fill="#FFD700" opacity="0.7"/>
  <circle cx="280" cy="150" r="1.3" fill="#FFD700" opacity="0.8"/>
  <circle cx="120" cy="180" r="1" fill="#FFD700" opacity="0.6"/>
  <circle cx="300" cy="120" r="1.7" fill="#FFD700" opacity="0.9"/>
  
  <!-- New Moon (dark circle with subtle glow) -->
  <circle cx="200" cy="150" r="80" fill="url(#newMoonGradient)" filter="url(#newMoonGlow)"/>
  
  <!-- Subtle outline to show the moon's presence -->
  <circle cx="200" cy="150" r="82" fill="none" stroke="#FFD700" stroke-width="1" opacity="0.3"/>
  
  <!-- Mystical energy swirls -->
  <path d="M 200 150 Q 180 130 160 150 Q 180 170 200 150" stroke="#FFD700" stroke-width="1" fill="none" opacity="0.2"/>
  <path d="M 200 150 Q 220 130 240 150 Q 220 170 200 150" stroke="#FFD700" stroke-width="1" fill="none" opacity="0.2"/>
  
  <!-- Constellation lines -->
  <path d="M 50 50 L 80 200 L 150 100" stroke="#FFD700" stroke-width="0.5" fill="none" opacity="0.4"/>
  <path d="M 350 80 L 320 250 L 280 150" stroke="#FFD700" stroke-width="0.5" fill="none" opacity="0.4"/>
</svg> 